<?xml version="1.0" encoding="utf-8"?>
<!-- Generator: Adobe Illustrator 19.1.0, SVG Export Plug-In . SVG Version: 6.00 Build 0)  -->
<svg version="1.1" id="Layer_1" xmlns="http://www.w3.org/2000/svg" xmlns:xlink="http://www.w3.org/1999/xlink" x="0px" y="0px"
	 viewBox="0 0 85.4 85.4" enable-background="new 0 0 85.4 85.4" xml:space="preserve">
<path fill="#A4EE54" d="M70.9,56.5c-1.3,0-2.5,0.2-3.7,0.5l-15-31.7c3-2.6,4.9-6.5,4.9-10.8c0-8-6.5-14.4-14.5-14.4
	S28.2,6.5,28.2,14.4c0,4.3,1.9,8.2,4.9,10.8L18.2,57c-1.2-0.3-2.4-0.5-3.7-0.5C6.5,56.5,0,63,0,71c0,8,6.5,14.4,14.5,14.4
	c7.3,0,13.4-5.4,14.4-12.4h27.7c1,7,7,12.4,14.4,12.4c8,0,14.5-6.5,14.5-14.4C85.4,63,78.9,56.5,70.9,56.5z M32.2,14.4
	C32.2,8.7,36.9,4,42.7,4c5.8,0,10.5,4.7,10.5,10.4s-4.7,10.4-10.5,10.4C36.9,24.9,32.2,20.2,32.2,14.4z M14.5,81.4
	C8.7,81.4,4,76.8,4,71s4.7-10.4,10.5-10.4C20.3,60.5,25,65.2,25,71S20.3,81.4,14.5,81.4z M28.9,69c-0.6-4.4-3.3-8.2-7-10.4
	l14.7-31.1c1.9,0.9,4,1.4,6.2,1.4c2.2,0,4.3-0.5,6.2-1.4l14.7,31.1c-3.7,2.2-6.4,6-7,10.4L28.9,69L28.9,69z M70.9,81.4
	c-5.8,0-10.5-4.7-10.5-10.4s4.7-10.4,10.5-10.4c5.8,0,10.5,4.7,10.5,10.4S76.7,81.4,70.9,81.4z"/>
</svg>
