<?xml version="1.0" encoding="utf-8"?>
<!-- Generator: Adobe Illustrator 19.1.0, SVG Export Plug-In . SVG Version: 6.00 Build 0)  -->
<svg version="1.1" id="Layer_1" xmlns="http://www.w3.org/2000/svg" xmlns:xlink="http://www.w3.org/1999/xlink" x="0px" y="0px"
	 viewBox="0 0 385.2 181.6" enable-background="new 0 0 385.2 181.6" xml:space="preserve">
<g>
	<path fill="#222222" d="M246.4,51.7c-6.9,0-12.4,4.1-15.6,10.6V16.4h-17.5v131.3h13.4l1.8-9.3c3.2,7.7,9.5,10.8,16.2,10.8
		c11.4,0,18.1-9.3,18.1-22.3V73.4C262.8,61.1,256.5,51.7,246.4,51.7z M245.6,124.8c0,5.9-3,9.3-7.5,9.3c-3.9,0-7.3-3.4-7.3-9.1V76.3
		c0-5.5,3-9.1,7.5-9.1s7.3,3.4,7.3,9.5V124.8z"/>
	<path fill="#222222" d="M303.4,123.4c0,4.5-3,10.6-7.9,10.6c-3.9,0-6.9-3.4-6.9-8.3V53h-17.5v75.5c0,12.4,6.1,20.7,17,20.7
		c7.1,0,13.6-4.3,16.8-13l1,11.4h15.2V53h-17.5V123.4z"/>
	<path fill="#222222" d="M385.2,50.5c0-2,0-3.7-0.6-7.1h-12.8c0,5.5-1.8,9.5-8.7,9.5c-1.6,0-4.3-1.2-9.1-1.2
		c-13.6,0-24.1,10.6-24.1,25.2v11.6c0,9.7,3.5,19.3,10.8,22.3c-6.9,1-12.2,7.7-12.2,14.2c0,5.5,3.4,11,9.3,13.2
		c-6.3,2.6-9.9,7.9-9.9,14.2v6.9c0,14,11.2,22.3,26.8,22.3c16.8,0,26.8-9.7,26.8-25.2v-7.5c0-13.6-8.3-21.9-25.6-21.9
		c-9.9,0-12.8-2.6-12.8-6.5c0-3.4,2.4-6.5,5.9-6.5c1,0.4,3.7,0.6,4.9,0.6c14.4,0,24.2-10.6,24.2-25.2V77.1c0-6.5-2.4-12-6.9-16.8
		c2,1,3.5,1.4,5.3,1.4C381.5,61.7,385.2,58,385.2,50.5z M344.4,149.6c0-4.7,3.4-8.3,10.6-8.3c7.9,0,10.8,3.5,10.8,8.3v8.3
		c0,4.7-3.4,8.7-10.8,8.7c-7.1,0-10.6-3.7-10.6-8.5V149.6z M361.7,92.1c0,4.7-3,8.5-7.7,8.5s-7.5-3.7-7.5-8.5V74.9
		c0-4.9,2.8-8.5,7.5-8.5s7.7,3.5,7.7,8.5V92.1z"/>
</g>
<g>
	<path fill="#FFFFFF" d="M124.3,51.5c-14.3,0-24.9,10.5-24.9,26.3v20.7h0v25.3c0,0.6,0,1.3-0.1,1.8c-0.6,3.8-3.9,6.7-7.9,6.7
		c-3.8,0-6.9-2.6-7.8-6.2c-0.1-0.7-0.2-1.5-0.2-2.4V33h0v-6.7C83.5,10.5,72.5,0,58.2,0C43.9,0,33.3,10.5,33.3,26.3v72.2h0.1V123
		c0,0.6,0,1.3-0.1,1.8c-0.6,3.8-3.9,6.7-7.9,6.7c-3.8,0-6.9-2.6-7.8-6.2c-0.1-0.7-0.2-1.5-0.2-2.4v-20.2h-0.1
		c-0.3-4.5-4.1-8.1-8.7-8.1s-8.4,3.6-8.7,8.1h0v19.4c0,15.7,10.9,26.3,25.3,26.3c14.3,0,24.9-10.5,24.9-26.3V92.5H50V25.5
		c0-0.7,0-1.3,0.1-1.9v1.2c0-4.4,3.6-8,8-8c3.2,0,6,1.9,7.2,4.7c0.4,1.1,0.6,2.4,0.6,3.9v90.6h0v6.9c0,15.7,10.9,26.3,25.3,26.3
		c14.3,0,24.9-10.5,24.9-26.3V92.5h0V77c0-0.7,0-1.3,0.1-1.9v1.2c0-4.4,3.6-8,8-8c3.2,0,6,1.9,7.2,4.7c0.4,1.1,0.6,2.4,0.6,3.9v63.5
		h0.1c0,4.8,3.9,8.7,8.7,8.7s8.7-3.9,8.7-8.7V77.8C149.6,62,138.6,51.5,124.3,51.5z"/>
	<path fill="#FFFFFF" d="M205.4,102.7V78.5c0-16-9.1-26.8-23.5-26.8c-14.2,0-24.4,10.8-24.4,26.8v44c0,16.2,10.3,26.8,24.4,26.8
		c14.4,0,23.5-10.6,23.5-26.6v-2.6h0c-0.1-4.3-3.6-7.7-7.9-7.7c-4.4,0-7.9,3.5-7.9,7.9h0v4.9c0,5.1-2.2,8.7-7.5,8.7
		c-4.9,0-7.5-3.5-7.5-8.7v-22.5H205.4z M174.6,75.9c0-5.3,2.8-8.9,7.5-8.9c4.9,0,7.3,3.5,7.3,8.9v16.8h-14.8V75.9z"/>
</g>
</svg>
